<svg width="178" height="39" viewBox="0 0 178 39" fill="none" xmlns="http://www.w3.org/2000/svg">
<path d="M19.8372 0L30.8557 7.48897V15.331L19.8372 7.86076L16.1269 10.3762L10.3486 6.44914L19.8372 0Z" fill="#A9A9A9"/>
<path d="M30.7921 30.8864L8.75515 15.9459V8.11697L8.79658 8.11328L30.7921 23.0631V30.8864Z" fill="#A9A9A9"/>
<path d="M29.2279 32.5743L19.7738 39L8.69164 31.4677V23.6258L19.7738 31.1392L23.4453 28.6501L29.2279 32.5743Z" fill="#A9A9A9"/>
<path d="M33.1335 29.9966L35.82 28.1708L35.7747 22.133L39.5798 19.4898L35.7747 16.8785V10.8505L33.0833 9.02148V16.8785L36.897 19.4898L33.0833 22.1011V28.311L33.1335 29.9966Z" fill="#A9A9A9"/>
<path d="M6.47869 29.9829L3.84482 28.1929L3.85743 22.1646L0.0205078 19.5215L3.85743 16.942L3.85184 10.8541L6.50252 9.05273L6.52469 15.508V16.942L2.70327 19.5215L6.52471 22.1328L6.47869 29.9829Z" fill="#A9A9A9"/>
<path d="M60.48 10.4888C61.4823 10.3339 62.4846 10.2565 63.487 10.2565C64.4893 10.2565 65.46 10.3494 66.4161 10.5352C67.3722 10.7211 68.2821 11.0269 69.1433 11.4528C70.3719 12.1342 71.2818 13.0015 71.8705 14.0508C72.4593 15.1 72.7731 16.037 72.8096 16.8539H66.7689C66.7689 16.4474 66.4477 16.1376 65.8055 15.9285C65.1632 15.7195 64.3895 15.6149 63.487 15.6149C62.5844 15.6149 61.8618 15.6846 61.3461 15.8202C60.8303 15.9557 60.5724 16.2189 60.5724 16.61C60.5724 17.001 60.8327 17.2217 61.3509 17.2798C62.4871 17.4656 63.6573 17.6244 64.8615 17.7599C66.6399 17.9457 68.2602 18.1974 69.7199 18.5187C70.6298 18.7317 71.3864 19.0492 71.9897 19.4673C72.5931 19.8855 73.0431 20.4779 73.3424 21.2483C73.6416 22.0188 73.7925 23.0448 73.7925 24.3263C73.7925 25.2014 73.6854 25.9796 73.4713 26.6533C73.2572 27.3308 72.975 27.9193 72.6271 28.4265C72.2792 28.9337 71.8973 29.3635 71.4813 29.7158C71.0652 30.072 70.6492 30.3663 70.2356 30.5986C69.2747 31.1135 68.2067 31.4426 67.0316 31.582C65.8541 31.7214 64.7861 31.7949 63.8276 31.7949C63.2218 31.7949 62.5236 31.7639 61.728 31.7059C60.9325 31.6478 60.1199 31.5007 59.2855 31.2684C58.451 31.0361 57.6555 30.6682 56.8964 30.1649C56.1398 29.6655 55.4805 28.9763 54.9258 28.1013C54.6071 27.6134 54.3565 27.0985 54.1741 26.5487C53.9892 25.9951 53.8967 25.2827 53.8967 24.4077H59.9375C59.9375 25.1665 60.2708 25.6931 60.9374 25.9912C61.6039 26.2893 62.5674 26.4364 63.8251 26.4364C64.735 26.4364 65.4551 26.3745 65.9806 26.2467C66.5061 26.119 66.8783 25.9486 67.0997 25.7357C67.3211 25.5227 67.4306 25.2943 67.4306 25.0504C67.4306 24.64 67.1946 24.3534 66.7202 24.1831C66.2458 24.0127 65.3213 23.854 63.9468 23.7069C63.9103 23.6991 63.8738 23.6914 63.8373 23.6914C62.2122 23.4978 60.7816 23.2965 59.5458 23.0874C58.3099 22.8783 57.3635 22.6034 56.7042 22.2627C54.955 21.2716 54.1789 19.4015 54.376 16.6603C54.4976 15.2897 54.8747 14.1669 55.5024 13.2919C56.1325 12.4169 56.8551 11.778 57.6749 11.3793C58.5434 10.9534 59.4776 10.6552 60.48 10.4888Z" fill="#A9A9A9"/>
<path d="M73.4075 31.09L81.0904 10.9415H87.6006L95.2738 31.09H89.0482L88.1967 28.5076H80.4943L79.6331 31.09H73.4075ZM86.2431 22.5993L84.3455 16.8653L82.4479 22.5993H86.2431Z" fill="#A9A9A9"/>
<path d="M101.47 19.9433L101.222 18.836V31.0939H96.0959V10.957H103.421L107.289 23.4627L111.158 10.957H118.473V31.0939H113.347V18.836L113.099 19.9433L109.642 31.09H104.91L101.463 19.9433H101.47Z" fill="#A9A9A9"/>
<path d="M126.95 25.1822H139.849V31.0905H121.824V10.9536H139.703V16.8464H126.95V18.7435H139.008V23.1806H126.95V25.1822Z" fill="#A9A9A9"/>
<path d="M151.77 10.9572H156.896V31.094H151.77V10.9572Z" fill="#A9A9A9"/>
<path d="M178 10.9493H161.107L161.104 10.9571H158.873V17.1132H165.86V31.0901H170.984V31.0824H171.016V17.1132H178L177.998 17.1054H178V10.9493Z" fill="#A9A9A9"/>
</svg>
